<svg width="36" height="36" viewBox="0 0 36 36" fill="none" xmlns="http://www.w3.org/2000/svg">
<path fill-rule="evenodd" clip-rule="evenodd" d="M34.5739 8.55559C36.4754 9.61194 36.4754 11.9881 34.5739 13.0444L32.1338 14.4L34.5739 15.7556C36.4754 16.812 36.4754 19.1881 34.5739 20.2444L32.1339 21.6L34.5739 22.9556C36.4754 24.0119 36.4754 26.3881 34.5739 27.4444L20.0818 35.4956C18.8712 36.1681 17.1288 36.1681 15.9182 35.4956L1.42608 27.4444C-0.475359 26.3881 -0.475359 24.0119 1.42608 22.9556L3.86612 21.6L1.42608 20.2444C-0.475359 19.1881 -0.475359 16.812 1.42608 15.7556L3.86615 14.4L1.42608 13.0444C-0.475359 11.9881 -0.475359 9.61194 1.42608 8.55559L15.9182 0.504425C17.1288 -0.168142 18.8712 -0.168142 20.0818 0.504425L34.5739 8.55559ZM20.0818 21.0956L28.4274 16.4591L31.201 18L28.4274 19.5409L24.721 21.6L18.3335 25.1486C18.2102 25.2171 17.7898 25.2171 17.6665 25.1486L11.279 21.6L7.57256 19.5409L4.79899 18L7.57258 16.4591L15.9182 21.0956C17.1288 21.7681 18.8712 21.7681 20.0818 21.0956ZM7.57255 23.6591L4.79899 25.2L17.6665 32.3486C17.7898 32.4171 18.2102 32.4171 18.3335 32.3486L31.201 25.2L28.4275 23.6591L20.0818 28.2956C18.8712 28.9682 17.1288 28.9682 15.9182 28.2956L7.57255 23.6591ZM17.6665 3.6514C17.7898 3.58287 18.2102 3.58287 18.3335 3.6514L31.201 10.8L18.3335 17.9486C18.2102 18.0171 17.7898 18.0171 17.6665 17.9486L4.79899 10.8L17.6665 3.6514Z" fill="#F1F1F1"/>
</svg>
