<svg width="35" height="36" viewBox="0 0 35 36" fill="none" xmlns="http://www.w3.org/2000/svg">
<path fill-rule="evenodd" clip-rule="evenodd" d="M11.1364 8.18182H6.54515C9.6165 4.5677 12.9806 3.27273 17.5 3.27273C25.4077 3.27273 31.8182 9.86635 31.8182 18C31.8182 26.1336 25.4077 32.7273 17.5 32.7273C9.59229 32.7273 3.18182 26.1336 3.18182 18H0C0 27.9411 7.83502 36 17.5 36C27.165 36 35 27.9411 35 18C35 8.05887 27.165 0 17.5 0C12.3878 0 8.33171 1.49 4.77273 5.32874V1.62198H1.59091V11.4545H11.1364V8.18182ZM25.4545 16.3636H19.0909V8.18182H15.9091V19.6364H25.4545V16.3636Z" fill="#F1F1F1"/>
</svg>
