<svg width="34" height="28" viewBox="0 0 34 28" fill="#666667" xmlns="http://www.w3.org/2000/svg">
<path d="M30.3335 4.00008H17.0002L14.6502 1.65008C14.0168 1.01675 13.1668 0.666748 12.2835 0.666748H3.66683C1.8335 0.666748 0.350163 2.16675 0.350163 4.00008L0.333496 24.0001C0.333496 25.8334 1.8335 27.3334 3.66683 27.3334H30.3335C32.1668 27.3334 33.6668 25.8334 33.6668 24.0001V7.33342C33.6668 5.50008 32.1668 4.00008 30.3335 4.00008ZM28.6668 24.0001H5.3335C4.41683 24.0001 3.66683 23.2501 3.66683 22.3334V9.00008C3.66683 8.08342 4.41683 7.33342 5.3335 7.33342H28.6668C29.5835 7.33342 30.3335 8.08342 30.3335 9.00008V22.3334C30.3335 23.2501 29.5835 24.0001 28.6668 24.0001Z"/>
</svg>
