<svg width="27" height="28" viewBox="0 0 27 28" fill="#666667" xmlns="http://www.w3.org/2000/svg">
<path d="M23.5941 15.0975C23.6491 14.6575 23.6903 14.2175 23.6903 13.75C23.6903 13.2825 23.6491 12.8425 23.5941 12.4025L26.4953 10.1338C26.7566 9.9275 26.8253 9.55625 26.6603 9.25375L23.9103 4.49625C23.7453 4.19375 23.3741 4.08375 23.0716 4.19375L19.6478 5.56875C18.9328 5.01875 18.1628 4.565 17.3241 4.22125L16.8016 0.5775C16.7603 0.2475 16.4716 0 16.1278 0H10.6278C10.2841 0 9.99533 0.2475 9.95408 0.5775L9.43158 4.22125C8.59283 4.565 7.82283 5.0325 7.10783 5.56875L3.68408 4.19375C3.36783 4.07 3.01033 4.19375 2.84533 4.49625L0.0953309 9.25375C-0.0834191 9.55625 -0.000918915 9.9275 0.260331 10.1338L3.16158 12.4025C3.10658 12.8425 3.06533 13.2963 3.06533 13.75C3.06533 14.2038 3.10658 14.6575 3.16158 15.0975L0.260331 17.3663C-0.000918915 17.5725 -0.0696691 17.9438 0.0953309 18.2463L2.84533 23.0038C3.01033 23.3063 3.38158 23.4163 3.68408 23.3063L7.10783 21.9313C7.82283 22.4813 8.59283 22.935 9.43158 23.2788L9.95408 26.9225C9.99533 27.2525 10.2841 27.5 10.6278 27.5H16.1278C16.4716 27.5 16.7603 27.2525 16.8016 26.9225L17.3241 23.2788C18.1628 22.935 18.9328 22.4675 19.6478 21.9313L23.0716 23.3063C23.3878 23.43 23.7453 23.3063 23.9103 23.0038L26.6603 18.2463C26.8253 17.9438 26.7566 17.5725 26.4953 17.3663L23.5941 15.0975ZM13.3778 18.5625C10.7241 18.5625 8.56533 16.4038 8.56533 13.75C8.56533 11.0963 10.7241 8.9375 13.3778 8.9375C16.0316 8.9375 18.1903 11.0963 18.1903 13.75C18.1903 16.4038 16.0316 18.5625 13.3778 18.5625Z"/>
</svg>
